<svg width="60" height="60" viewBox="0 0 60 60" fill="none" xmlns="http://www.w3.org/2000/svg">
<path d="M3.17188 14.3453C3.51844 12.8268 4.37038 11.4709 5.58817 10.4998C6.80596 9.5287 8.31742 8.9999 9.875 9H51.125C52.6826 8.9999 54.194 9.5287 55.4118 10.4998C56.6296 11.4709 57.4816 12.8268 57.8281 14.3453L30.5 31.0481L3.17188 14.3453ZM3 18.2709V42.6909L22.9478 30.4603L3 18.2709ZM26.2409 32.4781L3.65656 46.3209C4.21456 47.4975 5.09525 48.4915 6.19612 49.1871C7.297 49.8826 8.57279 50.2513 9.875 50.25H51.125C52.427 50.2503 53.7023 49.8809 54.8026 49.1847C55.9028 48.4885 56.7827 47.4942 57.34 46.3175L34.7556 32.4747L30.5 35.0769L26.2409 32.4781ZM38.0522 30.4638L58 42.6909V18.2709L38.0522 30.4603V30.4638Z" fill="white" stroke="white"/>
</svg>
