<svg width="643" height="113" viewBox="0 0 643 113" fill="none" xmlns="http://www.w3.org/2000/svg">
<path class="path" d="M20.83 112.27C20.18 112.27 19.45 112.15 18.64 111.9C16.28 110.44 15.11 108.49 15.11 106.05C15.11 103.21 15.96 100.57 17.67 98.13C20.43 94.31 23.64 91.39 27.3 89.35C26.16 85.45 23.4 81.39 19.01 77.16C13.97 79.68 8.61001 82.03 2.92001 84.23L2.07001 84.35C0.690007 84.35 0 83.58 0 82.03C0 80.98 0.529987 80.16 1.57999 79.59C6.61999 77.64 11.29 75.6901 15.6 73.7401C13.32 71.7101 12.11 69.52 11.94 67.16C12.18 63.42 14.23 60.19 18.09 57.47C21.95 54.75 25.91 53.39 29.97 53.39C34.03 53.39 36.1 55.75 36.43 60.46C36.02 65.99 31.72 70.78 23.51 74.84L24.85 76.42C28.26 80 30.54 83.53 31.68 87.02C36.23 85.07 41.23 83.73 46.67 83C56.18 81.78 62.76 81.17 66.41 81.17C69.09 81.01 72.34 80.52 76.16 79.71H76.65C77.71 79.71 78.36 80.4 78.6 81.78L78.72 83.85C76.85 84.91 72.14 85.68 64.58 86.17C49.39 86.98 38.78 88.89 32.77 91.9C32.93 92.63 33.01 93.48 33.01 94.46C33.01 97.3 32.4 100.15 31.18 102.99C29.47 106.81 27.12 109.61 24.11 111.4C23.05 111.97 21.96 112.25 20.82 112.25L20.83 112.27ZM20.1 71.45C27.74 67.39 31.56 63.81 31.56 60.73C31.56 58.94 30.5 58.05 28.39 58.05C26.44 58.05 24.08 59.01 21.32 60.91C18.56 62.82 17.18 64.87 17.18 67.06C17.18 68.2 17.52 69.07 18.22 69.68C18.91 70.29 19.36 70.7 19.56 70.9C19.76 71.1 19.94 71.29 20.11 71.45H20.1ZM28.14 94.6C25.13 96.47 22.7 99.03 20.83 102.28C20.18 103.42 19.85 104.43 19.85 105.33C19.85 105.82 20.01 106.24 20.34 106.61C20.66 106.98 20.95 107.16 21.19 107.16C21.84 107.16 22.73 106.63 23.87 105.58C26.8 102.49 28.26 99.08 28.26 95.34L28.14 94.61V94.6Z" fill="#040D47"/>
<path class="path" d="M76.65 98.9901C73.32 98.9901 70.72 97.57 68.85 94.72C68.2 93.42 67.87 92.12 67.87 90.82C67.87 87.65 69.66 84.6 73.23 81.68C76.56 79 80.26 77.66 84.32 77.66C88.54 77.9 91.47 79.12 93.09 81.32C96.34 81.32 99.55 81.71 102.72 82.48C105.89 83.25 108.53 83.64 110.64 83.64C116.16 83.64 121.65 82.54 127.09 80.35L128.07 80.23C129.61 80.23 130.39 81.08 130.39 82.79C130.31 83.77 129.7 84.5 128.56 84.98C122.71 87.58 116.74 88.88 110.64 88.88C107.79 88.88 104.95 88.43 102.11 87.54C99.26 86.65 96.79 86.2 94.68 86.2C94.68 87.17 94.03 88.56 92.73 90.34C91.19 92.53 88.93 94.53 85.97 96.31C83 98.1 79.9 98.9901 76.65 98.9901ZM77.01 94.6C79.37 94.44 81.32 93.18 82.86 90.82C84.48 86.43 86.6 83.59 89.2 82.29H84.08C80.67 82.37 77.46 83.87 74.45 86.8C73.31 88.18 72.74 89.48 72.74 90.7C72.66 90.86 72.62 91.07 72.62 91.31C72.62 93.18 74.08 94.28 77.01 94.6ZM87.74 90.46C88.15 90.46 88.75 89.95 89.57 88.94C90.38 87.92 90.79 87.21 90.79 86.81C90.79 86.49 90.55 86.32 90.06 86.32C88.27 86.56 87.26 87.7 87.01 89.73C87.01 90.22 87.25 90.46 87.74 90.46Z" fill="#040D47"/>
<path class="path" d="M163.91 96.06C162.77 96.06 160.99 95.98 158.55 95.82C156.11 95.66 153.63 94.64 151.12 92.77C148.76 91.06 147.59 88.34 147.59 84.6C147.59 81.51 148.32 78.51 149.78 75.58C144.25 78.67 137.59 81.55 129.79 84.23L129.06 84.35C128.41 84.35 127.86 84.11 127.41 83.62C126.96 83.13 126.74 82.52 126.74 81.79C126.74 80.74 127.31 79.96 128.45 79.47C137.3 76.55 145.63 72.69 153.43 67.89C159.93 53.75 168.22 39.49 178.29 25.11C183.33 17.31 189.18 10.4 195.84 4.39001C199.25 1.47001 202.1 0 204.37 0C207.46 0 209 1.95004 209 5.85004C209 7.64004 208.59 9.71001 207.78 12.07C204.45 20.84 199.98 29.01 194.37 36.57C184.05 50.87 171.66 62.45 157.2 71.3L156.35 73.13C153.75 78.01 152.45 81.87 152.45 84.71C152.45 87.55 153.59 89.38 155.86 90.19C157.97 90.92 160.29 91.29 162.81 91.29C166.87 91.29 171.34 90.64 176.22 89.34C185.24 87.15 193.85 83.94 202.06 79.71C202.47 79.47 202.87 79.34 203.28 79.34C203.77 79.34 204.3 79.56 204.86 80.01C205.43 80.46 205.71 81.13 205.71 82.02C205.71 82.83 205.3 83.44 204.49 83.85C193.6 89.54 182.19 93.44 170.24 95.55C168.29 95.88 166.18 96.04 163.9 96.04L163.91 96.06ZM161.23 62.79C177.97 51.5 191.21 35.86 200.96 15.87C202.18 13.51 203.11 10.96 203.76 8.19C204 7.38 204.13 6.65 204.13 6C204.13 5.68 203.97 5.51001 203.64 5.51001C203.31 5.51001 202.95 5.59 202.54 5.75C196.2 9.33 187.71 19.28 177.07 35.61C171.14 44.55 165.86 53.61 161.23 62.79Z" fill="#040D47"/>
<path class="path" d="M245.56 79.86C237.76 87.5 231.54 92.74 226.91 95.58C224.23 97.21 221.55 98.02 218.87 98.02L217.29 97.9C212.09 96.93 209.49 93.72 209.49 88.27C209.49 86.32 209.94 84.37 210.83 82.42C211.4 81.2 211.68 80.06 211.68 79.01C211.52 79.01 211.35 79.13 211.19 79.38C208.67 81.49 205.79 83.2 202.54 84.5L201.81 84.62C200.27 84.62 199.49 83.81 199.49 82.18C199.49 80.96 200.02 80.11 201.07 79.62C203.02 78.81 204.89 77.71 206.68 76.33C208.47 74.95 209.97 74.06 211.19 73.65C211.92 73.24 212.57 73.04 213.14 73.04C213.79 73.04 214.48 73.2 215.21 73.53C216.59 74.5 217.28 76.09 217.28 78.28C217.04 80.15 216.55 82.06 215.82 84.01C215.01 86.2 214.6 88.1101 214.6 89.7401C215.17 91.7701 216.39 92.79 218.26 92.79C222.08 92.63 226.79 89.99 232.4 84.87C239.3 78.7 244.67 73.7 248.49 69.88C249.14 69.47 249.87 69.27 250.68 69.27C252.22 69.51 253 70.33 253 71.71C253 72.04 252.43 74.03 251.29 77.68C249.34 83.77 248.37 87.67 248.37 89.38C248.37 90.36 248.82 90.88 249.71 90.96C251.58 90.96 253.49 90.35 255.44 89.13C257.63 87.83 259.91 86.57 262.27 85.35C265.19 83.73 268.53 82.39 272.26 81.33C275.02 80.52 277.7 79.91 280.3 79.5L281.03 79.38H281.4C282.38 79.38 283.02 80.11 283.35 81.57V81.94C283.35 82.83 282.58 83.48 281.03 83.89C278.84 84.46 276.83 84.95 275 85.35C273.17 85.76 270.43 86.73 266.77 88.27C264.17 89.57 261.57 91.11 258.97 92.9C255.88 95.01 252.92 96.07 250.07 96.07C245.76 96.07 243.45 94.08 243.12 90.1C243.12 87.91 243.57 85.67 244.46 83.4L245.56 79.87V79.86Z" fill="#040D47"/>
<path class="path" d="M300.65 100.09C297.32 100.09 293.78 99.8101 290.05 99.2401C284.93 98.6701 281.03 96.0701 278.35 91.4401C277.54 89.6501 277.13 87.8301 277.13 85.9601C277.13 83.7701 277.66 81.5301 278.71 79.2601C280.25 75.2801 283.62 69.1401 288.83 60.8601C284.69 60.6201 280.5 59.9701 276.28 58.9101C275.14 58.5901 274.57 57.9001 274.57 56.8401C274.57 56.1901 274.77 55.6001 275.18 55.0701C275.59 54.5401 276.16 54.2801 276.89 54.2801H277.5C282.29 55.4201 287.05 56.0701 291.76 56.2301C293.95 52.8201 296.27 49.4901 298.71 46.2401V46.1201C301.71 41.9001 304.8 37.7501 307.97 33.6901C312.44 28.4901 317.27 23.6601 322.47 19.1901C323.12 18.7801 323.81 18.5801 324.54 18.5801C325.35 18.5801 325.92 18.9901 326.25 19.8001C326.74 20.9401 326.98 22.1201 326.98 23.3301C326.98 25.6101 325.68 28.8101 323.08 32.9601L321.98 34.7901C317.27 42.5901 312.15 49.7001 306.62 56.1201L346.84 55.1401C348.38 55.1401 349.16 55.9101 349.16 57.4601C349.16 59.7401 335.35 60.8701 307.72 60.8701L302.36 60.9901C296.02 68.2201 289.44 75.2501 282.62 82.0701C282.13 83.2901 281.97 84.4701 282.13 85.6101C282.29 87.9701 283.15 89.9601 284.69 91.5801C286.4 93.3701 288.59 94.3801 291.27 94.6301C293.14 94.8701 294.97 95.0401 296.75 95.1201H302.11C328.68 94.9601 356.42 89.9601 385.35 80.1301L386.08 80.0101C386.73 80.0101 387.26 80.2501 387.66 80.7401C388.07 81.2301 388.27 81.7601 388.27 82.3201C388.27 83.5401 387.7 84.3501 386.56 84.7601C362.92 93.2101 338.5 98.1301 313.31 99.5101L309.9 99.7501C306.81 99.9101 303.72 100.04 300.64 100.12L300.65 100.09ZM291.26 66.2101L295.89 61.0901H294.43L291.26 66.2101ZM300.16 56.3301C307.72 47.6401 313.85 39.1501 318.56 30.8601L319.54 29.4001C320.19 28.4301 320.68 27.5701 321 26.8401C314.74 32.6901 308.73 39.8401 302.96 48.2901L297.48 56.3301H300.16Z" fill="#040D47"/>
<path class="path" d="M413.01 92.1701H411.91C407.93 92.1701 403.91 91.4401 399.84 89.9801C395.37 88.1101 392.65 85.3501 391.67 81.6901C390.37 82.6601 388.54 83.6001 386.19 84.4901L385.46 84.6101C384 84.6101 383.27 83.8001 383.27 82.1701C383.27 81.0301 383.8 80.2201 384.85 79.7301C387.53 78.8401 389.72 77.3701 391.43 75.3401C392 74.6101 392.73 74.2401 393.62 74.2401C395.16 74.2401 395.94 75.0101 395.94 76.5601V77.1701C395.94 80.5001 397.18 82.9401 399.66 84.4801C402.14 86.0201 404.68 86.8801 407.28 87.0401C409.88 87.2001 411.91 87.2801 413.37 87.2801C415.32 87.2801 417.07 87.2001 418.61 87.0401C429.01 86.1501 439.08 83.6701 448.83 79.6101L449.56 79.4901C451.02 79.4901 451.75 80.3001 451.75 81.9301C451.75 82.9901 451.26 83.8001 450.29 84.3701C438.35 89.3301 425.92 91.9301 413 92.1701H413.01ZM399.12 62.6701C398.47 62.6701 397.82 62.4701 397.17 62.0601C395.54 61.5701 394.73 60.3501 394.73 58.4001C394.73 57.3401 395.11 56.5301 395.89 55.9601C396.66 55.3901 397.37 55.1101 398.02 55.1101C398.83 55.1101 399.6 55.2301 400.34 55.4801C401.8 56.1301 402.53 57.3101 402.53 59.0101C402.53 59.5801 402.41 60.1901 402.16 60.8401C401.51 62.0601 400.49 62.6701 399.11 62.6701H399.12Z" fill="#040D47"/>
<path class="path" d="M449.94 98.9901C446.61 98.9901 444.01 97.57 442.14 94.72C441.49 93.42 441.16 92.12 441.16 90.82C441.16 87.65 442.95 84.6 446.52 81.68C449.85 79 453.55 77.66 457.61 77.66C461.83 77.9 464.76 79.12 466.38 81.32C469.63 81.32 472.84 81.71 476.01 82.48C479.18 83.25 481.82 83.64 483.93 83.64C489.45 83.64 494.94 82.54 500.38 80.35L501.36 80.23C502.9 80.23 503.68 81.08 503.68 82.79C503.6 83.77 502.99 84.5 501.85 84.98C496 87.58 490.03 88.88 483.93 88.88C481.08 88.88 478.24 88.43 475.4 87.54C472.55 86.65 470.08 86.2 467.97 86.2C467.97 87.17 467.32 88.56 466.02 90.34C464.48 92.53 462.22 94.53 459.26 96.31C456.29 98.1 453.19 98.9901 449.94 98.9901ZM450.31 94.6C452.67 94.44 454.62 93.18 456.16 90.82C457.78 86.43 459.9 83.59 462.5 82.29H457.38C453.97 82.37 450.76 83.87 447.75 86.8C446.61 88.18 446.04 89.48 446.04 90.7C445.96 90.86 445.92 91.07 445.92 91.31C445.92 93.18 447.38 94.28 450.31 94.6ZM461.03 90.46C461.44 90.46 462.04 89.95 462.86 88.94C463.67 87.92 464.08 87.21 464.08 86.81C464.08 86.49 463.84 86.32 463.35 86.32C461.56 86.56 460.55 87.7 460.3 89.73C460.3 90.22 460.54 90.46 461.03 90.46Z" fill="#040D47"/>
<path class="path" d="M501.01 96.8001C500.36 96.8001 499.75 96.6801 499.18 96.4301C497.39 95.3701 496.5 93.2601 496.5 90.0901C496.5 85.3801 497.84 81.2401 500.52 77.6601C501.09 76.9301 501.74 76.5601 502.47 76.5601C503.45 76.5601 504.22 76.9701 504.79 77.7801C505.03 78.1101 505.16 78.4701 505.16 78.8801C505.16 79.2901 505 79.7301 504.67 80.2201C502.48 83.1401 501.38 86.3901 501.38 89.9701V91.0701C501.38 91.4001 501.46 91.5601 501.62 91.5601C501.78 91.5601 502.11 91.3201 502.6 90.8301C503.09 90.3401 504.14 89.5701 505.77 88.5101L511.25 84.6101C516.61 80.3001 521.16 78.1501 524.9 78.1501C528.15 78.1501 530.71 79.5301 532.58 82.2901C533.88 83.9201 535.79 84.7301 538.31 84.7301C540.58 84.7301 546.88 83.5101 557.2 81.0701C562.16 79.9301 564.96 79.3601 565.61 79.3601C566.26 79.3601 566.81 79.6501 567.26 80.2101C567.71 80.7801 567.93 81.3901 567.93 82.0401C567.93 83.0201 567.36 83.7501 566.22 84.2301L558.3 85.8101C556.19 86.3001 554.03 86.7501 551.84 87.1501L548.67 87.8801C544.2 89.1001 540.55 89.7101 537.7 89.7101C533.72 89.7101 530.75 88.2501 528.8 85.3201C527.9 83.7001 526.69 82.8801 525.14 82.8801C524.73 82.8801 524.08 83.0001 523.19 83.2501C521.32 83.7401 517.71 85.9301 512.34 89.8301L507.34 93.3601C504.74 95.6401 502.63 96.7701 501 96.7701L501.01 96.8001Z" fill="#040D47"/>
<path class="path" d="M584.24 112.27C583.59 112.27 582.86 112.15 582.05 111.9C579.69 110.44 578.52 108.49 578.52 106.05C578.52 103.21 579.37 100.57 581.08 98.13C583.84 94.31 587.05 91.39 590.71 89.35C589.57 85.45 586.81 81.39 582.42 77.16C577.38 79.68 572.02 82.03 566.33 84.23L565.48 84.35C564.1 84.35 563.41 83.58 563.41 82.03C563.41 80.98 563.94 80.16 564.99 79.59C570.03 77.64 574.7 75.6901 579.01 73.7401C576.73 71.7101 575.52 69.52 575.35 67.16C575.59 63.42 577.64 60.19 581.5 57.47C585.36 54.75 589.32 53.39 593.38 53.39C597.44 53.39 599.51 55.75 599.84 60.46C599.43 65.99 595.13 70.78 586.92 74.84L588.26 76.42C591.67 80 593.95 83.53 595.09 87.02C599.64 85.07 604.64 83.73 610.08 83C619.59 81.78 626.17 81.17 629.82 81.17C632.5 81.01 635.75 80.52 639.57 79.71H640.06C641.12 79.71 641.77 80.4 642.01 81.78L642.13 83.85C640.26 84.91 635.55 85.68 627.99 86.17C612.8 86.98 602.19 88.89 596.18 91.9C596.34 92.63 596.42 93.48 596.42 94.46C596.42 97.3 595.81 100.15 594.59 102.99C592.88 106.81 590.53 109.61 587.52 111.4C586.46 111.97 585.37 112.25 584.23 112.25L584.24 112.27ZM583.51 71.45C591.15 67.39 594.97 63.81 594.97 60.73C594.97 58.94 593.91 58.05 591.8 58.05C589.85 58.05 587.49 59.01 584.73 60.91C581.97 62.82 580.59 64.87 580.59 67.06C580.59 68.2 580.93 69.07 581.63 69.68C582.32 70.29 582.77 70.7 582.97 70.9C583.17 71.1 583.35 71.29 583.52 71.45H583.51ZM591.56 94.6C588.55 96.47 586.12 99.03 584.25 102.28C583.6 103.42 583.27 104.43 583.27 105.33C583.27 105.82 583.43 106.24 583.76 106.61C584.08 106.98 584.37 107.16 584.61 107.16C585.26 107.16 586.15 106.63 587.29 105.58C590.22 102.49 591.68 99.08 591.68 95.34L591.56 94.61V94.6Z" fill="#040D47"/>
</svg>
