<svg width="60" height="60" viewBox="0 0 60 60" fill="none" xmlns="http://www.w3.org/2000/svg">
<g clip-path="url(#clip0_10_69)">
<path fill-rule="evenodd" clip-rule="evenodd" d="M8.4816 4.75379C9.08311 4.15319 9.80538 3.68729 10.6006 3.38694C11.3957 3.0866 12.2457 2.95868 13.094 3.01166C13.9424 3.06465 14.7698 3.29732 15.5215 3.69426C16.2731 4.09121 16.9318 4.64336 17.4539 5.31413L23.6245 13.2414C24.7555 14.6955 25.1542 16.5896 24.7073 18.3772L22.827 25.9057C22.7297 26.2956 22.735 26.7041 22.8422 27.0914C22.9494 27.4787 23.155 27.8317 23.4389 28.1161L31.8852 36.5624C32.1699 36.8469 32.5235 37.0528 32.9115 37.16C33.2995 37.2673 33.7086 37.2722 34.099 37.1743L41.6241 35.2939C42.5062 35.0734 43.427 35.0562 44.3167 35.2438C45.2065 35.4314 46.0419 35.8189 46.7599 36.3768L54.6872 42.544C57.537 44.7612 57.7982 48.9724 55.2475 51.5197L51.693 55.0742C49.1491 57.6181 45.347 58.7353 41.8028 57.4875C32.7315 54.2957 24.4952 49.1025 17.7048 42.293C10.8958 35.5037 5.70263 27.2686 2.51039 18.1985C1.26596 14.6577 2.3832 10.8522 4.92707 8.30833L8.4816 4.75379Z" fill="white" stroke="white"/>
</g>
<defs>
<clipPath id="clip0_10_69">
<rect width="60" height="60" rx="10" fill="white"/>
</clipPath>
</defs>
</svg>
