<svg width="827" height="578" viewBox="0 0 827 578" fill="none" xmlns="http://www.w3.org/2000/svg">

<path class="initiale-w" d="M109.97 169.54L185 275.65L210.81 275.73L136.75 169.62L109.97 169.54Z" fill="#040D47"/> <!-- Partie 1 du W  -->
<path class="initiale-w" d="M210.73 275.94L235.11 214.99H216.94L193.66 251.95" fill="#040D47"/> <!-- Partie 2 du W -->
<path class="initiale-w" d="M271.71 275.46H242.96L217.93 217.01L218.54 214.99H235.11L271.71 275.46Z" fill="#040D47"/> <!-- Partie 3 du W -->
<path class="initiale-w" d="M346.61 169.3L271.57 275.41L245.77 275.49L319.83 169.38L346.61 169.3Z" fill="#040D47"/> <!-- Partie 4 du W -->

<path class="initiale-f" d="M586.72 169.3L511.69 275.41L485.89 275.49L559.94 169.38L586.72 169.3Z" fill="#040D47"/> <!-- Barre latérale F -->
<path class="initiale-f" d="M560.02 169.35L680.79 168.77L664.1 185.78L574.02 186.55L560.02 169.35Z" fill="#040D47"/> <!-- Barre du Haut F -->
<path class="initiale-f" d="M562.24 203.23L622.46 203.25L604.16 220.88H550.16L562.24 203.23Z" fill="#040D47"/> <!-- Barre du Bas F -->

<g>
<path class="electric" d="M95.01 543.8H55.78V449.21H94.64V461.72H69.92V489.34H91.2V501.61H69.92V531.29H95V543.8H95.01Z" fill="#F4AF1B"/> <!-- 1er E de ELECTRIC -->
<path class="electric" d="M191.36 543.8H154.19V449.21H168.33V531.17H191.36V543.8Z" fill="#F4AF1B"/> <!-- L de ELECTRIC -->
<path class="electric" d="M288.5 543.8H249.27V449.21H288.13V461.72H263.41V489.34H284.69V501.61H263.41V531.29H288.49V543.8H288.5Z" fill="#F4AF1B"/> <!-- Partie -->
<path class="electric" d="M394.23 535.16C394.23 540.92 391.35 543.8 385.59 543.8H356.09C350.49 543.8 347.69 540.92 347.69 535.16V457.92C347.69 452.12 350.49 449.22 356.09 449.22H385.59C391.35 449.22 394.23 452.12 394.23 457.92V480.04H380.15V461.36H361.84V531.65H380.15V511.76H394.23V535.15V535.16Z" fill="#F4AF1B"/> <!-- Partie -->
<path class="electric" d="M495.96 461.72H480.37V543.8H466.29V461.72H450.7V449.21H495.97V461.72H495.96Z" fill="#F4AF1B"/> <!-- Partie -->
<path class="electric" d="M601.08 543.8H586.33L570.74 499.86V491.34H584.64V461.36H566.81V543.8H552.67V449.21H590.2C595.88 449.21 598.72 452.11 598.72 457.91V492.3C598.72 496.29 597.37 498.87 594.67 500.04C593.22 500.64 590.16 500.95 585.48 500.95L601.07 543.8H601.08Z" fill="#F4AF1B"/> <!-- Partie -->
<path class="electric" d="M673.62 543.8H659.48V449.21H673.62V543.8Z" fill="#F4AF1B"/> <!-- Partie -->
<path class="electric" d="M781.28 535.16C781.28 540.92 778.4 543.8 772.64 543.8H743.14C737.54 543.8 734.74 540.92 734.74 535.16V457.92C734.74 452.12 737.54 449.22 743.14 449.22H772.64C778.4 449.22 781.28 452.12 781.28 457.92V480.04H767.2V461.36H748.89V531.65H767.2V511.76H781.28V535.15V535.16Z" fill="#F4AF1B"/> <!-- Partie -->
</g>

<path class="droite-eclair" d="M778.78 132.59L484.66 138.3L473.58 138.52L477.24 127.83L504.59 48L518.55 55.09L409.63 210.97L403.24 198.53L491.29 199.57L506.08 199.75L497.72 211.95L426.03 316.56L419.55 304.18L616.45 313.13L419.47 320L404.14 320.53C407.27 315.94 479.53 210.53 484.67 203.01L491.1 215.39C480.98 215.27 395.72 214.26 388.1 214.17L396.67 201.91C420.16 168.29 516.15 30.91 537.75 0C527.13 31.02 503.04 101.33 492.21 132.95L484.79 122.48L778.79 132.58L778.78 132.59Z" fill="#F4AF1B"/> <!-- Partie droite éclair -->
<path class="gauche-eclair" d="M47.01 132.59L421.58 123.29L437 122.91C433.89 127.39 360.93 232.34 355.78 239.76L349.34 227.34L435.97 227.95L450.94 228.06C424.53 266.18 326.26 407.97 301.09 444.3C309.53 415.4 331.42 340.47 340.14 310.63L347.72 320.76L156.2 312.55L347.75 304.95L358.41 304.53C357.16 308.79 331.86 395.44 329.94 401.98L315.85 395.26L429.42 231.37L435.86 243.78C425.3 243.69 342.29 243.13 334.23 243.06C337.18 238.85 410.11 133.87 415.11 126.69L421.63 139.11L47 132.59H47.01Z" fill="#F4AF1B"/> <!-- Partie gauche éclair -->
</svg>
